<svg width="524" height="524" viewBox="0 0 524 524" fill="none" xmlns="http://www.w3.org/2000/svg">
<rect width="524" height="524" fill="#F51449"/>
<path fill-rule="evenodd" clip-rule="evenodd" d="M398.716 352.608L403.856 339.074H413.714L407.169 354.475C406.051 357.018 404.896 359.566 403.509 361.982C399.142 369.593 394.507 371.499 386.005 369.869L387.08 362.063C389.572 363.207 393.46 363.095 393.795 360.698L381.72 339.074H392.271L398.716 352.608V352.608ZM132.922 346.922L134.304 339.569C123.129 335.912 110 341.685 110 354.63C110 360.088 112.231 364.13 115.761 366.749C121.146 370.744 129.247 371.001 135.645 369.745L134.725 362.039C128.401 363.644 119.239 362.846 119.239 354.382C119.239 347.379 126.964 343.694 132.922 346.922V346.922ZM153.941 352.608L159.081 339.074H168.939L162.394 354.475C161.276 357.018 160.121 359.566 158.734 361.982C154.366 369.593 149.732 371.499 141.23 369.869L142.305 362.063C144.797 363.207 148.685 363.095 149.02 360.698L136.945 339.074H147.496L153.941 352.608V352.608ZM170.981 339.074V346.762H179.869V369.625H189.446V346.762H198.334V339.074H170.981V339.074ZM215.479 345.134C219.798 345.134 221.55 349.757 221.55 354.318C221.55 359.816 219.172 363.502 215.479 363.502C211.41 363.502 209.219 359.566 209.219 354.318C209.219 349.82 210.909 345.134 215.479 345.134V345.134ZM215.729 338.387C205.902 338.387 199.392 344.697 199.392 354.568C199.392 364.44 206.277 370.312 215.228 370.312C223.428 370.312 231.378 365.189 231.378 354.006C231.378 344.822 225.118 338.387 215.729 338.387V338.387ZM234.263 339.074V349.195C234.263 360.046 244.873 363.203 252.353 358.475H252.478V369.625H261.992V339.074H252.478V352.132C251.601 352.819 249.912 353.444 248.347 353.444C245.092 353.444 243.778 351.694 243.778 348.321V339.074H234.263V339.074ZM268.383 339.074V369.625H277.897V357.725H287.537V369.625H297.114V339.074H287.537V349.912H277.897V339.074H268.383V339.074ZM317.901 345.134C322.219 345.134 323.972 349.757 323.972 354.318C323.972 359.816 321.594 363.502 317.901 363.502C313.832 363.502 311.641 359.566 311.641 354.318C311.641 349.82 313.332 345.134 317.901 345.134V345.134ZM318.151 338.387C308.324 338.387 301.814 344.697 301.814 354.568C301.814 364.44 308.699 370.312 317.65 370.312C325.85 370.312 333.799 365.189 333.799 354.006C333.799 344.822 327.54 338.387 318.151 338.387V338.387ZM364.075 369.625H354.716V338.761C358.326 338.542 368.236 337.981 373.306 339.044C374.913 339.382 376.278 340.181 377.404 340.991C378.717 341.937 379.727 343.114 380.419 344.524C381.11 345.941 381.452 347.51 381.452 349.236C381.452 351.078 381.11 352.696 380.427 354.092C379.744 355.495 378.739 356.642 377.404 357.538C373.865 359.917 368.18 359.438 364.075 359.438V369.625V369.625ZM364.075 352.894C366.21 352.894 368.738 353.068 370.616 351.942C371.54 351.389 372.124 350.33 372.124 348.992C372.124 347.696 371.548 346.659 370.641 346.113C368.772 344.987 366.205 345.176 364.075 345.176V352.894V352.894Z" fill="white"/>
<path fill-rule="evenodd" clip-rule="evenodd" d="M343.626 349.063C346.559 349.063 348.936 351.452 348.936 354.401C348.936 357.349 346.559 359.738 343.626 359.738C340.694 359.738 338.317 357.349 338.317 354.401C338.317 351.452 340.694 349.063 343.626 349.063" fill="white"/>
<path fill-rule="evenodd" clip-rule="evenodd" d="M203.327 151.326C218.112 150.713 239.393 139.859 262.071 135.221C284.834 130.568 308.704 129.78 324.4 126.57C345.163 122.325 352.993 116.814 354.022 125.956C354.294 128.353 346.367 133.812 347.253 138.126C349.499 149.051 356.983 163.018 360.156 178.46C363.823 196.311 363.182 215.661 365.51 226.987C367.281 235.607 381.527 239.497 372.462 243.784C360.238 249.561 359.406 240.571 346.319 243.247C344.472 243.625 342.594 243.583 340.736 243.16C337.701 201.243 328.502 191.031 325.989 177.435C327.055 174.959 329.815 171.661 330.689 169.34C332.186 165.363 331.108 161.733 330.324 158.301C324.2 144.552 309.325 150.138 309.325 150.138C309.325 150.138 295.965 153.7 281.47 156.254C269.782 158.314 257.355 159.407 250.602 159.848C235.476 160.834 195.862 171.464 196.442 172.594C195.32 170.468 194.62 168.843 194.415 167.842C192.965 160.796 181.319 162.491 181.446 158.966C181.681 152.458 183.642 152.14 203.327 151.326V151.326ZM311.603 220.669C312.184 229.6 311.268 245.662 305.235 256.428C298.642 268.201 288.621 274.896 288.621 274.896C288.621 274.896 304.611 278.689 313.279 260.558C321.948 242.425 312.981 222.633 311.603 220.669V220.669ZM338.469 281.723C326.317 287.467 325.489 278.528 312.477 281.188C295.779 284.603 272.427 293.447 249.176 298.202C225.31 303.081 201.596 303.861 188.674 306.503C183.627 307.536 180.256 316.092 177.403 314.418C166.019 307.74 177.527 306.921 175.176 295.474C172.853 284.166 164.936 267.975 161.445 250.978C158.147 234.921 163.691 217.146 161.447 206.217C160.006 199.211 148.427 200.897 148.554 197.392C148.785 190.921 150.736 190.607 170.307 189.797C185.007 189.187 206.167 178.395 228.715 173.784C251.345 169.157 275.079 168.374 290.683 165.182C311.328 160.961 319.112 155.483 320.138 164.572C320.406 166.954 312.527 172.384 313.408 176.671C315.64 187.535 323.081 201.422 326.234 216.774C329.882 234.522 329.244 253.762 331.558 265.023C333.319 273.592 347.483 277.46 338.469 281.723V281.723Z" fill="white"/>
</svg>
